<?xml version="1.0" encoding="UTF-8" standalone="no"?>
<svg
   xmlns:figma="http://www.figma.com/figma/ns"
   xmlns:dc="http://purl.org/dc/elements/1.1/"
   xmlns:cc="http://creativecommons.org/ns#"
   xmlns:rdf="http://www.w3.org/1999/02/22-rdf-syntax-ns#"
   xmlns:svg="http://www.w3.org/2000/svg"
   xmlns="http://www.w3.org/2000/svg"
   xmlns:sodipodi="http://sodipodi.sourceforge.net/DTD/sodipodi-0.dtd"
   xmlns:inkscape="http://www.inkscape.org/namespaces/inkscape"
   viewBox="0 0 590 239"
   width="590"
   height="239"
   version="1.1"
   id="svg94"
   sodipodi:docname="jupyter_voila.svg"
   inkscape:version="0.92.4 5da689c313, 2019-01-14">
  <metadata
     id="metadata98">
    <rdf:RDF>
      <cc:Work
         rdf:about="">
        <dc:format>image/svg+xml</dc:format>
        <dc:type
           rdf:resource="http://purl.org/dc/dcmitype/StillImage" />
        <dc:title>BLEU-fond-transparent</dc:title>
      </cc:Work>
    </rdf:RDF>
  </metadata>
  <sodipodi:namedview
     pagecolor="#ffffff"
     bordercolor="#666666"
     borderopacity="1"
     objecttolerance="10"
     gridtolerance="10"
     guidetolerance="10"
     inkscape:pageopacity="0"
     inkscape:pageshadow="2"
     inkscape:window-width="1920"
     inkscape:window-height="1027"
     id="namedview96"
     showgrid="false"
     inkscape:zoom="1.2702052"
     inkscape:cx="76.250259"
     inkscape:cy="99.18248"
     inkscape:window-x="0"
     inkscape:window-y="0"
     inkscape:window-maximized="1"
     inkscape:current-layer="svg94" />
  <defs
     id="defs84">
    <style
       id="style82">.cls-1{fill:#5dbcaf;}.cls-2{fill:#f8e14b;}</style>
  </defs>
  <title
     id="title86">BLEU-fond-transparent</title>
  <g
     id="Calque_2"
     data-name="Calque 2"
     transform="matrix(0.70568708,0,0,0.70568708,272.34336,57.713027)">
    <g
       id="Calque_1-2"
       data-name="Calque 1">
      <path
         class="cls-1"
         d="m 77.39,94.6 a 20.39,20.39 0 0 1 -2.08,0.11 19.6,19.6 0 0 1 -2.06,-0.12 h -0.39 v 0.39 a 54.76,54.76 0 0 1 -2.1,19.46 90.47,90.47 0 0 1 -14.66,28.5 94.15,94.15 0 0 1 -17,17.44 c -6.63,5 -12.85,7.48 -18.46,7.48 -4.27,0 -7.7,-0.76 -10.19,-2.26 a 19,19 0 0 1 -5.61,-4.72 c -5,-6.37 -6.21,-17.1 -3.47,-31.88 1.87,-11.53 6.31,-26.43 13.19,-44.31 a 4.92,4.92 0 0 1 2.71,-2.88 5.92,5.92 0 0 1 2.44,-0.54 6.37,6.37 0 0 1 1.77,0.26 6.6,6.6 0 0 1 3.23,2.79 3.43,3.43 0 0 1 0.15,3.5 v 0.1 a 294.43,294.43 0 0 0 -10,30.48 126.23,126.23 0 0 0 -3.72,19.75 c -0.41,5.14 -0.28,8.92 0.4,11.56 a 17.06,17.06 0 0 0 2.21,5.61 7.9,7.9 0 0 0 2.36,1.89 9.62,9.62 0 0 0 4.56,0.85 c 2.89,0 6.72,-1.73 11.7,-5.28 4.77,-3.4 9.63,-8.46 14.43,-15.05 a 90.13,90.13 0 0 0 7.23,-11.24 76.07,76.07 0 0 0 5.56,-12.83 52,52 0 0 0 2.57,-13.18 A 27,27 0 0 0 60,88 a 3.69,3.69 0 0 1 0.07,-3.55 6.14,6.14 0 0 1 1,-1.29 l 0.05,-0.07 a 5.39,5.39 0 0 1 0.4,-0.54 4.81,4.81 0 0 1 3.57,-1.55 5.1,5.1 0 0 1 3.07,1.08 5.56,5.56 0 0 1 1.24,1 10.44,10.44 0 0 0 5.93,1.92 8.47,8.47 0 0 0 1,-0.06 10.46,10.46 0 0 0 6.67,-3.56 4.87,4.87 0 0 1 3.71,-1.72 4.88,4.88 0 0 1 3.71,8 20.21,20.21 0 0 1 -13.03,6.94 z M 201.56,66.76 A 5.26,5.26 0 0 0 208,63 a 30.2,30.2 0 0 1 2,-5.26 31.09,31.09 0 0 1 2.23,-3.89 5.27,5.27 0 1 0 -8.73,-5.9 41,41 0 0 0 -5.62,12.37 5.25,5.25 0 0 0 3.73,6.44 z m -34.14,41.61 c 1.69,21.74 -13.42,50.21 -38.62,57.94 A 44,44 0 0 1 115.68,168.58 26.29,26.29 0 0 1 102,165 c -9.81,-5.91 -12.34,-16.63 -13.29,-20.66 -4.77,-20.24 7.94,-38.52 13.63,-45.44 4.11,-5 19,-21.13 38.71,-18.9 3.47,0.4 12.7,1.45 19.51,9.76 5.35,6.55 6.44,13.76 6.86,18.61 z m -10.67,0.83 c -0.29,-3.7 -1.06,-8.49 -4.51,-12.7 -4.06,-5 -9.73,-5.6 -12.45,-5.91 a 23.5,23.5 0 0 0 -2.52,-0.14 c -13.18,0 -23.78,11.64 -26.71,15.2 -4.68,5.69 -15.16,20.61 -11.49,36.2 0.73,3.1 2.45,10.36 8.4,14 6.44,3.88 14.38,1.45 18.19,0.29 v 0.15 -0.16 c 20,-6.13 32.44,-29.68 31.09,-46.93 z m 246.47,26.87 c -0.8,2.87 -8.35,28.11 -28.46,32.05 a 30,30 0 0 1 -5.83,0.6 20.65,20.65 0 0 1 -11.73,-3.4 c -6.52,-4.39 -10.11,-12.51 -9.66,-21.81 l -2,2.42 a 80.29,80.29 0 0 1 -6.27,6.69 c -2.16,2 -4.35,3.94 -6.51,5.63 a 46.86,46.86 0 0 1 -15.87,8.21 24.58,24.58 0 0 1 -14.92,0.23 19,19 0 0 1 -7.8,-5 21.82,21.82 0 0 1 -4.75,-8.28 26.43,26.43 0 0 1 -1.22,-6.81 83.12,83.12 0 0 1 -12.87,11.51 c -6.31,4.53 -12.43,6.83 -18.19,6.83 -4.54,0 -8.09,-0.82 -10.56,-2.43 a 19.48,19.48 0 0 1 -5.63,-5.14 c -2.55,-3.59 -4,-8.48 -4.42,-14.52 -1.61,1.85 -3.14,3.53 -4.66,5.11 a 102.19,102.19 0 0 1 -15.61,13.39 c -7,4.41 -13.66,6.64 -19.75,6.64 -4.6,0 -8.29,-0.76 -11,-2.25 a 20.22,20.22 0 0 1 -6.1,-4.73 c -5.51,-6.42 -6.79,-17.22 -3.8,-32.09 2,-11.55 6.85,-26.47 14.31,-44.36 a 5.2,5.2 0 0 1 3,-3 6.66,6.66 0 0 1 4.5,-0.26 6.37,6.37 0 0 1 3.58,2.79 3.69,3.69 0 0 1 0,3.81 v 0.08 a 278.26,278.26 0 0 0 -10.83,30.45 116.68,116.68 0 0 0 -4,19.82 c -0.45,5.17 -0.31,8.92 0.43,11.47 a 16,16 0 0 0 2.29,5.33 l 0.05,0.06 a 8.31,8.31 0 0 0 2.55,1.89 11.3,11.3 0 0 0 5,0.86 c 3.5,0 7.45,-1.4 12.08,-4.29 a 73.36,73.36 0 0 0 13.92,-11.85 c 2.07,-2.17 4,-4.36 5.62,-6.49 1.39,-1.8 2.35,-2.92 3,-3.74 0.65,-0.82 1,-1.18 1.42,-1.75 a 61.19,61.19 0 0 0 3.84,-5.85 50.71,50.71 0 0 0 3.11,-6.58 c 1.5,-6.35 3.55,-13.46 6.09,-21.09 2.34,-6.72 4.93,-13.66 7.67,-20.63 2.74,-6.97 5.54,-13.76 8.39,-20.42 2.85,-6.66 13.24,-29.51 16,-35.37 l 7.8,-16.64 a 5.51,5.51 0 0 1 3.1,-2.74 5.67,5.67 0 0 1 2.14,-0.42 6,6 0 0 1 2.14,0.41 5,5 0 0 1 2.86,2.87 4.55,4.55 0 0 1 -0.09,3.92 C 281.4,37 262.84,79.54 256.31,99 c -4.59,13.45 -7.39,24.68 -8.34,33.38 -0.82,6.13 -0.89,10.5 -0.22,13.35 a 16.6,16.6 0 0 0 2.32,6 6.09,6.09 0 0 0 2.28,2.1 9.5,9.5 0 0 0 4.77,1 c 3.23,0 6.87,-1.45 11.15,-4.42 a 73.22,73.22 0 0 0 12.82,-11.93 l 0.63,-0.71 c 1.26,-1.44 2.83,-3.22 4.63,-5.63 a 82.8,82.8 0 0 0 5.07,-7.78 l 1.15,-1.93 c 6.3,-10.45 8.5,-13.15 9.61,-14.28 a 91.3,91.3 0 0 1 9.13,-10 c 4.62,-4.38 11,-10.38 20.76,-13.87 a 45.63,45.63 0 0 1 5,-1.45 l 0.88,-0.22 c 7.2,-2.08 13.31,-1.84 18.68,0.72 a 19.88,19.88 0 0 1 9.56,8.66 c 3.24,6.23 2.57,13.48 -2.32,25 a 75.27,75.27 0 0 0 -4.64,25.65 34.57,34.57 0 0 0 0.9,8.81 v 0.11 l -0.1,0.07 -0.14,0.08 v 0 a 10,10 0 0 0 3.48,4.41 c 3.36,2.26 7.6,1.43 9.2,1.12 13.84,-2.71 19.83,-23.9 19.89,-24.11 a 5.56,5.56 0 0 1 6.84,-3.88 5.56,5.56 0 0 1 3.88,6.85 z m -46.87,-39 a 9.29,9.29 0 0 0 -4.48,-3.74 c -4.39,-2.1 -9.23,-0.7 -14.22,1 -13.19,4.62 -23,15.31 -28.83,23.47 l -0.09,0.13 v 0 a 60.62,60.62 0 0 0 -7.28,15.74 c -1.8,5.82 -2.37,10.89 -1.71,15.08 0.73,4.56 2.74,7.4 6,8.45 2,0.67 4.73,0.57 8.19,-0.29 3.46,-0.86 7.27,-2.94 11.7,-6.24 A 102.09,102.09 0 0 0 338.38,137.92 103.2,103.2 0 0 0 351,118.44 c 4.74,-9.91 7.45,-17.34 5.35,-21.39 z"
         id="path88"
         inkscape:connector-curvature="0"
         style="fill:#5dbcaf" />
      <path
         class="cls-2"
         d="m 381.52,72.31 a 43.42,43.42 0 0 1 -43.38,-43.37 5.59,5.59 0 1 1 11.18,0 32.24,32.24 0 0 0 32.2,32.2 5.59,5.59 0 0 1 0,11.17 z"
         id="path90"
         inkscape:connector-curvature="0"
         style="fill:#f8e14b" />
    </g>
  </g>
  <g
     id="Canvas"
     transform="matrix(3.3827119,0,0,3.3827119,-5513.2225,-8245.2797)"
     figma:type="canvas">
    <g
       id="g311"
       style="mix-blend-mode:normal"
       figma:type="group">
      <g
         id="g309"
         style="mix-blend-mode:normal"
         figma:type="group">
        <g
           id="Group"
           style="mix-blend-mode:normal"
           figma:type="group">
          <g
             id="g"
             style="mix-blend-mode:normal"
             figma:type="group">
            <g
               id="path"
               style="mix-blend-mode:normal"
               figma:type="group">
              <g
                 id="path9 fill"
                 style="mix-blend-mode:normal"
                 figma:type="vector">
                <path
                   inkscape:connector-curvature="0"
                   d="m 1642.285,2479.8353 c 0,1.5581 -0.1247,2.0655 -0.4452,2.4394 -0.3567,0.3213 -0.8198,0.4989 -1.2998,0.4986 l 0.1246,0.8903 c 0.7442,0.01 1.4664,-0.2528 2.0299,-0.7389 0.3033,-0.3698 0.5289,-0.7969 0.6635,-1.2558 0.1346,-0.4588 0.1754,-0.9401 0.12,-1.4151 v -5.8938 h -1.193 v 5.4397 z"
                   id="use246"
                   style="mix-blend-mode:normal;fill:#4e4e4e" />
              </g>
            </g>
            <g
               id="g253"
               style="mix-blend-mode:normal"
               figma:type="group">
              <g
                 id="path10 fill"
                 style="mix-blend-mode:normal"
                 figma:type="vector">
                <path
                   inkscape:connector-curvature="0"
                   d="m 1651.182,2479.1331 c 0,0.6677 0,1.2642 0.053,1.7806 h -1.0595 l -0.071,-1.0595 c -0.2216,0.3749 -0.5385,0.6844 -0.9185,0.897 -0.38,0.2127 -0.8095,0.321 -1.2449,0.3138 -1.0328,0 -2.2614,-0.5609 -2.2614,-2.8489 v -3.8016 h 1.193 v 3.5612 c 0,1.2375 0.3828,2.0655 1.4601,2.0655 0.2216,0 0.4415,-0.04 0.6467,-0.1232 0.2053,-0.084 0.3917,-0.2076 0.5484,-0.3643 0.1567,-0.1568 0.2806,-0.3432 0.3643,-0.5484 0.084,-0.2053 0.1256,-0.4251 0.1233,-0.6468 v -3.9885 h 1.1929 v 4.7275 z"
                   id="use250"
                   style="mix-blend-mode:normal;fill:#4e4e4e" />
              </g>
            </g>
            <g
               id="g258"
               style="mix-blend-mode:normal"
               figma:type="group">
              <g
                 id="path11 fill"
                 style="mix-blend-mode:normal"
                 figma:type="vector">
                <path
                   inkscape:connector-curvature="0"
                   d="m 1653.4434,2476.5326 c 0,-0.8279 0,-1.5046 -0.053,-2.1189 h 1.0684 l 0.053,1.1129 c 0.238,-0.4021 0.5807,-0.732 0.9915,-0.9546 0.4107,-0.2227 0.8742,-0.3297 1.3411,-0.3096 1.5847,0 2.7777,1.3265 2.7777,3.303 0,2.3326 -1.4334,3.49 -2.9825,3.49 -0.3965,0.018 -0.7909,-0.067 -1.1449,-0.2467 -0.3541,-0.1793 -0.6558,-0.447 -0.8761,-0.7772 v 0 3.5612 h -1.1752 v -7.0333 z m 1.1752,1.7361 c 0,0.1616 0.021,0.3225 0.053,0.4808 0.101,0.3953 0.331,0.7456 0.6535,0.9956 0.3225,0.2499 0.7191,0.3852 1.1271,0.3843 1.2553,0 1.9943,-1.0238 1.9943,-2.5106 0,-1.2998 -0.6944,-2.4127 -1.9498,-2.4127 -0.4967,0.041 -0.9616,0.2612 -1.3074,0.6201 -0.3459,0.3589 -0.5489,0.8317 -0.5711,1.3297 z"
                   id="use255"
                   style="mix-blend-mode:normal;fill:#4e4e4e" />
              </g>
            </g>
            <g
               id="g263"
               style="mix-blend-mode:normal"
               figma:type="group">
              <g
                 id="path12 fill"
                 style="mix-blend-mode:normal"
                 figma:type="vector">
                <path
                   inkscape:connector-curvature="0"
                   d="m 1661.7476,2474.4078 1.4334,3.8372 c 0.1514,0.4273 0.3116,0.9437 0.4185,1.3265 0.1246,-0.3917 0.2581,-0.8903 0.4184,-1.3532 l 1.2998,-3.8105 h 1.2554 l -1.7806,4.6296 c -0.8903,2.2257 -1.4334,3.3742 -2.2525,4.0686 -0.4125,0.3768 -0.9155,0.6406 -1.4601,0.7657 l -0.2938,-0.9972 c 0.3808,-0.1251 0.7343,-0.3215 1.0417,-0.5787 0.4343,-0.3539 0.779,-0.8054 1.006,-1.3176 0.049,-0.089 0.082,-0.1851 0.098,-0.2849 -0.01,-0.1074 -0.037,-0.2126 -0.08,-0.3116 l -2.4216,-5.9917 h 1.2998 z"
                   id="use260"
                   style="mix-blend-mode:normal;fill:#4e4e4e" />
              </g>
            </g>
            <g
               id="g268"
               style="mix-blend-mode:normal"
               figma:type="group">
              <g
                 id="path13 fill"
                 style="mix-blend-mode:normal"
                 figma:type="vector">
                <path
                   inkscape:connector-curvature="0"
                   d="m 1669.7401,2472.54 v 1.8696 h 1.7094 v 0.8903 h -1.7094 v 3.5078 c 0,0.8013 0.2315,1.2642 0.8903,1.2642 0.234,0 0.4675,-0.023 0.6945,-0.08 l 0.053,0.8903 c -0.3404,0.1179 -0.6995,0.1722 -1.0595,0.1602 -0.2384,0.015 -0.4772,-0.022 -0.7,-0.1079 -0.2229,-0.086 -0.4244,-0.2193 -0.5909,-0.3906 -0.3626,-0.4851 -0.5281,-1.0895 -0.463,-1.6916 v -3.5612 h -1.0149 v -0.8903 h 1.0327 v -1.5847 z"
                   id="use265"
                   style="mix-blend-mode:normal;fill:#4e4e4e" />
              </g>
            </g>
            <g
               id="g273"
               style="mix-blend-mode:normal"
               figma:type="group">
              <g
                 id="path14 fill"
                 style="mix-blend-mode:normal"
                 figma:type="vector">
                <path
                   inkscape:connector-curvature="0"
                   d="m 1673.6472,2477.869 c -0.024,0.3019 0.017,0.6055 0.1221,0.8898 0.1047,0.2842 0.2698,0.5423 0.484,0.7565 0.2142,0.2142 0.4723,0.3793 0.7566,0.484 0.2842,0.1046 0.5878,0.1463 0.8897,0.1222 0.6107,0.014 1.2175,-0.1017 1.7806,-0.3384 l 0.2048,0.8903 c -0.6911,0.2847 -1.4341,0.4212 -2.1812,0.4007 -0.4356,0.03 -0.8724,-0.035 -1.2806,-0.1898 -0.4081,-0.1549 -0.778,-0.3962 -1.0841,-0.7074 -0.3062,-0.3112 -0.5414,-0.685 -0.6895,-1.0956 -0.1481,-0.4107 -0.2057,-0.8485 -0.1687,-1.2835 0,-1.9587 1.1663,-3.5078 3.0715,-3.5078 2.1367,0 2.6709,1.8696 2.6709,3.0626 0.011,0.1838 0.011,0.3682 0,0.552 h -4.6028 z m 3.4899,-0.8903 c 0.034,-0.238 0.017,-0.4806 -0.05,-0.7115 -0.067,-0.2309 -0.1834,-0.4447 -0.3403,-0.6269 -0.1569,-0.1822 -0.3511,-0.3287 -0.5694,-0.4296 -0.2183,-0.1008 -0.4557,-0.1537 -0.6962,-0.155 -0.4892,0.035 -0.9475,0.2522 -1.2851,0.6079 -0.3376,0.3558 -0.5302,0.8248 -0.54,1.3151 z"
                   id="use270"
                   style="mix-blend-mode:normal;fill:#4e4e4e" />
              </g>
            </g>
            <g
               id="g278"
               style="mix-blend-mode:normal"
               figma:type="group">
              <g
                 id="path15 fill"
                 style="mix-blend-mode:normal"
                 figma:type="vector">
                <path
                   inkscape:connector-curvature="0"
                   d="m 1680.0334,2476.4323 c 0,-0.7657 0,-1.4245 -0.053,-2.0299 h 1.0684 v 1.2731 h 0.053 c 0.1121,-0.3929 0.3438,-0.7412 0.6629,-0.9965 0.3191,-0.2552 0.7097,-0.4048 1.1177,-0.4279 0.1123,-0.015 0.226,-0.015 0.3383,0 v 1.1128 c -0.1361,-0.016 -0.2735,-0.016 -0.4096,0 -0.4041,0.016 -0.7887,0.1779 -1.082,0.4565 -0.2933,0.2785 -0.4751,0.6542 -0.5116,1.057 -0.033,0.1822 -0.051,0.3668 -0.053,0.552 v 3.4633 h -1.1752 v -4.4515 z"
                   id="use275"
                   style="mix-blend-mode:normal;fill:#4e4e4e" />
              </g>
            </g>
          </g>
        </g>
        <g
           id="g307"
           style="mix-blend-mode:normal"
           figma:type="group">
          <g
             id="g285"
             style="mix-blend-mode:normal"
             figma:type="group">
            <g
               id="path16 fill"
               style="mix-blend-mode:normal"
               figma:type="vector">
              <path
                 inkscape:connector-curvature="0"
                 d="m 1679.5106,2456.5257 c 0.037,0.5981 -0.1057,1.1935 -0.4088,1.7105 -0.303,0.5169 -0.7531,0.9319 -1.2929,1.1922 -0.5397,0.2602 -1.1447,0.3539 -1.7379,0.2691 -0.5932,-0.085 -1.1477,-0.3442 -1.593,-0.7453 -0.4452,-0.4011 -0.7609,-0.9256 -0.907,-1.5067 -0.146,-0.5812 -0.1158,-1.1927 0.087,-1.7566 0.2027,-0.5639 0.5686,-1.0547 1.0513,-1.4099 0.4826,-0.3551 1.06,-0.5586 1.6586,-0.5845 0.3926,-0.022 0.7855,0.035 1.1562,0.1654 0.3707,0.1308 0.7119,0.3336 1.0039,0.5967 0.2921,0.2631 0.5293,0.5813 0.6979,0.9364 0.1687,0.3551 0.2654,0.74 0.2848,1.1327 z"
                 id="use282"
                 style="mix-blend-mode:normal;fill:#767677" />
            </g>
          </g>
          <g
             id="g290"
             style="mix-blend-mode:normal"
             figma:type="group">
            <g
               id="path17 fill"
               style="mix-blend-mode:normal"
               figma:type="vector">
              <path
                 inkscape:connector-curvature="0"
                 d="m 1661.9062,2491.3924 c -8.0126,0 -15.0549,-2.8757 -18.6962,-7.1224 1.4128,3.8204 3.9622,7.1163 7.3048,9.444 3.3426,2.3278 7.3182,3.5756 11.3914,3.5756 4.0733,0 8.0488,-1.2478 11.3915,-3.5756 3.3426,-2.3277 5.8919,-5.6236 7.3048,-9.444 -3.6324,4.2467 -10.648,7.1224 -18.6963,7.1224 z"
                 id="use287"
                 style="mix-blend-mode:normal;fill:#f37726" />
            </g>
          </g>
          <g
             id="g295"
             style="mix-blend-mode:normal"
             figma:type="group">
            <g
               id="path18 fill"
               style="mix-blend-mode:normal"
               figma:type="vector">
              <path
                 inkscape:connector-curvature="0"
                 d="m 1661.9062,2463.7773 c 8.0127,0 15.055,2.8756 18.6963,7.1223 -1.4129,-3.8204 -3.9622,-7.1163 -7.3048,-9.444 -3.3427,-2.3277 -7.3182,-3.5756 -11.3915,-3.5756 -4.0732,0 -8.0488,1.2479 -11.3914,3.5756 -3.3426,2.3277 -5.892,5.6236 -7.3048,9.444 3.6413,-4.2556 10.648,-7.1223 18.6962,-7.1223 z"
                 id="use292"
                 style="mix-blend-mode:normal;fill:#f37726" />
            </g>
          </g>
          <g
             id="g300"
             style="mix-blend-mode:normal"
             figma:type="group">
            <g
               id="path19 fill"
               style="mix-blend-mode:normal"
               figma:type="vector">
              <path
                 inkscape:connector-curvature="0"
                 d="m 1650.8758,2499.6566 c 0.047,0.7533 -0.1314,1.5036 -0.5123,2.1553 -0.381,0.6516 -0.9473,1.1751 -1.6268,1.5037 -0.6796,0.3286 -1.4415,0.4475 -2.1889,0.3416 -0.7473,-0.106 -1.4462,-0.4321 -2.0076,-0.9367 -0.5614,-0.5046 -0.9598,-1.1649 -1.1446,-1.8967 -0.1847,-0.7319 -0.1474,-1.5022 0.1072,-2.2128 0.2546,-0.7106 0.715,-1.3293 1.3224,-1.7773 0.6075,-0.448 1.3347,-0.705 2.0887,-0.7383 0.494,-0.026 0.9884,0.045 1.4549,0.2094 0.4665,0.1647 0.8959,0.4197 1.2638,0.7504 0.368,0.3307 0.6671,0.7306 0.8804,1.177 0.2133,0.4464 0.3366,0.9304 0.3628,1.4244 z"
                 id="use297"
                 style="mix-blend-mode:normal;fill:#9e9e9e" />
            </g>
          </g>
          <g
             id="g305"
             style="mix-blend-mode:normal"
             figma:type="group">
            <g
               id="path20 fill"
               style="mix-blend-mode:normal"
               figma:type="vector">
              <path
                 inkscape:connector-curvature="0"
                 d="m 1644.1206,2462.8094 c -0.4317,0.012 -0.8574,-0.1041 -1.2234,-0.3334 -0.366,-0.2293 -0.656,-0.5618 -0.8336,-0.9555 -0.1775,-0.3937 -0.2347,-0.8312 -0.1643,-1.2573 0.07,-0.4261 0.2652,-0.822 0.5599,-1.1377 0.2948,-0.3157 0.6763,-0.5372 1.0966,-0.6366 0.4203,-0.099 0.8606,-0.072 1.2656,0.078 0.405,0.1501 0.7566,0.4166 1.0105,0.766 0.2539,0.3494 0.3988,0.7661 0.4165,1.1977 0.017,0.5835 -0.1971,1.1501 -0.5955,1.5768 -0.3984,0.4268 -0.949,0.6791 -1.5323,0.7023 z"
                 id="use302"
                 style="mix-blend-mode:normal;fill:#616262" />
            </g>
          </g>
        </g>
      </g>
    </g>
  </g>
  <text
     xml:space="preserve"
     style="font-style:normal;font-variant:normal;font-weight:normal;font-stretch:normal;font-size:59.13702393px;line-height:1.25;font-family:HelveticaNeue;-inkscape-font-specification:HelveticaNeue;letter-spacing:0px;word-spacing:0px;fill:#000000;fill-opacity:1;stroke:none;stroke-width:3.696064"
     x="209.9649"
     y="160.32823"
     id="text510"><tspan
       sodipodi:role="line"
       id="tspan508"
       x="209.9649"
       y="160.32823"
       style="font-style:normal;font-variant:normal;font-weight:300;font-stretch:normal;font-family:'Open Sans';-inkscape-font-specification:'Open Sans Light';stroke-width:3.696064">+</tspan></text>
</svg>
